<?xml version="1.0" encoding="utf-8"?>
<!-- Generator: Adobe Illustrator 16.0.0, SVG Export Plug-In . SVG Version: 6.00 Build 0)  -->
<!DOCTYPE svg PUBLIC "-//W3C//DTD SVG 1.1//EN" "http://www.w3.org/Graphics/SVG/1.1/DTD/svg11.dtd">
<svg version="1.1" xmlns="http://www.w3.org/2000/svg" xmlns:xlink="http://www.w3.org/1999/xlink" x="0px" y="0px" width="600px"
	 height="242.472px" viewBox="0 0 600 242.472" enable-background="new 0 0 600 242.472" xml:space="preserve">
<rect id="border" fill="none" width="600" height="242.472"/>
<g>
	<path fill="#631B4B" d="M195.793,120.658c-2.114,1.852-5.83,4.635-7.218,5.59c-1.38,0.957-4.251,2.764-5.398,3.768
		c-1.172,1.014-3.84,3.428-5.129,4.852c-1.306,1.441-3.378,3.276-5.221,4.968c-1.831,1.695-4.985,3.849-4.985,3.849
		c-0.049,0.043-0.11,0.072-0.174,0.112c-1.175,0.68-2.699,0.289-3.37-0.903c-0.611-1.029-0.378-2.322,0.48-3.08
		c0,0,0.955-1.191,2.89-2.952c1.948-1.744,2.929-2.854,3.891-4.043c0.967-1.189,5.201-6.502,5.201-6.502
		c0.166-0.208,0.204-0.515,0.063-0.749c-0.193-0.33-0.604-0.437-0.926-0.256c-2.829,1.715-16.154,10.556-18.618,12.16
		c-1.671,1.104-6.239,3.816-6.658,3.912c-1.363,0.477-2.909-0.459-3.39-1.819c-0.382-1.094,0-2.265,0.868-2.94
		c2.527-2.186,4.045-3.218,5.72-4.458c1.709-1.266,5.954-4.501,8.021-6.049c2.05-1.551,3.839-2.729,5.614-3.988
		c0.461-0.417,0.505-1.125,0.086-1.585c-0.359-0.385-0.944-0.483-1.394-0.221c-1.196,0.724-7.354,4.15-9.036,4.941
		c-1.693,0.788-3.524,1.388-6.107,2.482c-2.582,1.073-4.66,2.098-4.66,2.098s-3.722,2.025-6.371,3.258
		c-1.586,0.905-3.577,0.374-4.488-1.187c-0.898-1.568-0.371-3.576,1.189-4.479c0.69-0.491,3.076-1.776,3.686-2.069
		c2.347-1.145,7.562-4.246,9.75-5.354c2.17-1.113,6.195-3.075,7.681-3.663c1.467-0.583,4.055-1.832,4.055-1.832
		c0.537-0.304,0.709-0.992,0.407-1.525c-0.271-0.465-0.832-0.666-1.317-0.499c-2.19,0.646-4.383,1.179-7.034,1.772
		c-2.657,0.585-8.147,1.765-10.338,2.282c-2.118,0.491-4.591,1.194-8.059,1.73c-1.141,0.265-2.351-0.245-2.967-1.291
		c-0.746-1.323-0.443-3.209,0.858-3.957c0.357-0.278,6.168-2.602,8.185-3.18c2.977-0.892,5.714-2.213,8.734-2.906
		c3.402-0.766,6.866-1.69,10.059-3.064c8.382-3.611,9.669-7.709,9.897-8.444c0.44-1.429-0.412-1.5-1.388-1.543
		c-5.138-0.185-10.249,0.08-14.816-2.641c-1.508-0.906-3.099-2.182-3.53-3.97c-0.31-1.304,0.019-2.782,1.529-3.051
		c1.256-0.218,2.703,0.209,3.974,0.361c1.111,0.124,2.231,0.243,3.354,0.338c2.059,0.216,4.161,0.46,6.237,0.385
		c2.274-0.086,4.438-0.397,6.719-0.521c7.92-0.458,13.203-0.247,19.921,3.493c0,0,1.983,1.47,4.916-0.038V52.917
		c0-3.288-2.68-5.969-5.972-5.969h-71.92c0.604,0.537,1.133,1.039,1.497,1.467c1.868,2.11,4.655,5.84,5.603,7.211
		c0.956,1.39,2.754,4.271,3.758,5.415c1.013,1.162,3.433,3.824,4.863,5.127c1.445,1.302,3.28,3.381,4.97,5.211
		c1.682,1.829,3.838,4.986,3.838,4.986c0.044,0.057,0.076,0.108,0.118,0.169c0.677,1.184,0.283,2.704-0.9,3.388
		c-1.03,0.589-2.322,0.359-3.081-0.5c0,0-1.184-0.943-2.94-2.884c-1.765-1.942-2.873-2.937-4.051-3.895
		c-1.195-0.974-6.509-5.191-6.509-5.191c-0.208-0.176-0.516-0.203-0.759-0.064c-0.313,0.188-0.428,0.598-0.239,0.925
		c1.701,2.831,10.554,16.141,12.156,18.611c1.097,1.666,3.821,6.249,3.915,6.665c0.474,1.356-0.465,2.91-1.828,3.388
		c-1.09,0.395-2.267,0.004-2.94-0.873c-2.179-2.53-3.217-4.04-4.45-5.719c-1.275-1.71-4.498-5.949-6.044-8.009
		c-1.571-2.064-2.731-3.844-4.014-5.611c-0.394-0.469-1.101-0.51-1.558-0.1c-0.401,0.37-0.487,0.952-0.224,1.395
		c0.723,1.195,4.143,7.358,4.932,9.044c0.788,1.685,1.392,3.528,2.477,6.095c1.086,2.585,2.103,4.672,2.103,4.672
		s2.026,3.713,3.259,6.379c0.9,1.563,0.376,3.563-1.184,4.469c-1.563,0.912-3.586,0.372-4.48-1.186
		c-0.505-0.692-1.782-3.067-2.07-3.675c-1.141-2.357-4.242-7.574-5.351-9.761c-1.12-2.17-3.074-6.195-3.655-7.671
		c-0.604-1.474-1.851-4.058-1.851-4.058c-0.306-0.533-0.979-0.722-1.508-0.407c-0.474,0.265-0.679,0.826-0.511,1.326
		c0.658,2.184,1.182,4.372,1.774,7.022c0.585,2.66,1.774,8.148,2.279,10.331c0.489,2.128,1.21,4.6,1.747,8.08
		c0.241,1.131-0.252,2.339-1.308,2.948c-1.319,0.762-3.2,0.45-3.951-0.856c-0.271-0.363-2.602-6.17-3.198-8.179
		c-0.864-2.987-2.202-5.711-2.887-8.738c-0.769-3.39-1.686-6.857-3.074-10.052c-3.613-8.383-7.711-9.676-8.438-9.904
		c-1.438-0.435-1.51,0.416-1.541,1.39c-0.187,5.133,0.073,10.253-2.646,14.823c-0.898,1.503-2.187,3.084-3.968,3.526
		c-1.308,0.299-2.779-0.019-3.051-1.532c-0.216-1.257,0.203-2.718,0.352-3.975c0.134-1.11,0.245-2.232,0.355-3.343
		c0.199-2.059,0.463-4.176,0.371-6.244c-0.075-2.278-0.388-4.444-0.524-6.721c-0.462-7.914-0.247-13.209,3.5-19.924
		c0,0,1.504-2.024-0.075-4.989h-35.41c-3.295,0-5.963,2.681-5.963,5.969v72.116c0.573-0.658,1.123-1.233,1.57-1.627
		c2.12-1.864,5.842-4.641,7.218-5.589c1.38-0.959,4.259-2.761,5.41-3.769c1.16-1.015,3.829-3.43,5.128-4.863
		c1.3-1.439,3.378-3.277,5.215-4.958c1.81-1.693,4.987-3.84,4.987-3.84c0.048-0.046,0.103-0.086,0.165-0.121
		c1.185-0.683,2.695-0.283,3.383,0.894c0.6,1.036,0.363,2.325-0.485,3.091c0,0-0.962,1.184-2.898,2.941
		c-1.935,1.756-2.94,2.862-3.888,4.049c-0.967,1.19-5.196,6.503-5.196,6.503c-0.167,0.209-0.203,0.52-0.069,0.754
		c0.199,0.324,0.604,0.445,0.925,0.245c2.84-1.695,16.149-10.55,18.626-12.158c1.663-1.094,6.237-3.813,6.656-3.904
		c1.35-0.484,2.915,0.455,3.391,1.821c0.386,1.088,0,2.265-0.883,2.941c-2.527,2.178-4.029,3.213-5.708,4.453
		c-1.713,1.266-5.958,4.502-8.017,6.055c-2.064,1.55-3.846,2.718-5.609,3.994c-0.462,0.403-0.512,1.112-0.099,1.571
		c0.371,0.398,0.948,0.484,1.392,0.223c1.204-0.725,7.367-4.151,9.049-4.934c1.682-0.802,3.513-1.393,6.096-2.481
		c2.583-1.081,4.667-2.099,4.667-2.099s3.71-2.034,6.379-3.266c1.565-0.903,3.563-0.376,4.475,1.186
		c0.906,1.572,0.371,3.581-1.189,4.481c-0.684,0.5-3.07,1.778-3.686,2.077c-2.349,1.137-7.556,4.231-9.745,5.344
		c-2.183,1.116-6.201,3.073-7.681,3.666c-1.466,0.581-4.056,1.833-4.056,1.833c-0.528,0.308-0.727,0.985-0.405,1.522
		c0.266,0.466,0.826,0.672,1.325,0.504c2.181-0.661,4.375-1.188,7.021-1.778c2.657-0.582,8.155-1.762,10.323-2.28
		c2.145-0.485,4.618-1.207,8.082-1.735c1.139-0.25,2.347,0.243,2.951,1.301c0.765,1.313,0.449,3.202-0.851,3.953
		c-0.357,0.271-6.168,2.608-8.18,3.189c-2.982,0.876-5.706,2.213-8.732,2.889c-3.396,0.773-6.86,1.685-10.066,3.063
		c-8.376,3.625-9.669,7.724-9.893,8.452c-0.43,1.431,0.413,1.512,1.386,1.544c5.142,0.184,10.25-0.085,14.824,2.643
		c1.504,0.9,3.083,2.185,3.52,3.972c0.313,1.295-0.025,2.777-1.522,3.055c-1.265,0.205-2.718-0.209-3.968-0.364
		c-1.124-0.125-2.244-0.244-3.349-0.349c-2.057-0.203-4.179-0.462-6.247-0.375c-2.282,0.073-4.438,0.385-6.721,0.52
		c-7.912,0.465-13.207,0.244-19.926-3.495c0,0-2.064-1.544-5.095,0.113v35.266c0,3.293,2.667,5.966,5.963,5.966h72.103
		c-0.604-0.539-1.134-1.038-1.51-1.466c-1.837-2.114-4.628-5.84-5.584-7.212c-0.95-1.386-2.76-4.261-3.766-5.41
		c-1.017-1.165-3.433-3.83-4.852-5.129c-1.441-1.305-3.278-3.377-4.968-5.218c-1.695-1.831-3.844-4.987-3.844-4.987
		c-0.046-0.048-0.075-0.104-0.119-0.165c-0.685-1.189-0.283-2.693,0.9-3.372c1.028-0.608,2.33-0.378,3.082,0.481
		c0,0,1.196,0.952,2.953,2.891c1.738,1.938,2.852,2.93,4.049,3.896c1.177,0.961,6.509,5.191,6.509,5.191
		c0.197,0.171,0.499,0.202,0.74,0.066c0.325-0.193,0.436-0.611,0.258-0.928c-1.707-2.831-10.552-16.155-12.172-18.623
		c-1.092-1.661-3.802-6.237-3.902-6.652c-0.468-1.357,0.455-2.916,1.824-3.395c1.086-0.377,2.256,0.01,2.929,0.879
		c2.188,2.524,3.223,4.036,4.461,5.719c1.266,1.706,4.5,5.949,6.048,8.014c1.558,2.058,2.729,3.831,3.993,5.607
		c0.413,0.465,1.122,0.508,1.59,0.093c0.394-0.354,0.468-0.945,0.216-1.393c-0.734-1.193-4.156-7.36-4.936-9.04
		c-0.797-1.688-1.396-3.524-2.493-6.101c-1.066-2.583-2.101-4.673-2.101-4.673s-2.017-3.707-3.255-6.366
		c-0.912-1.572-0.375-3.566,1.189-4.478c1.567-0.91,3.577-0.375,4.477,1.189c0.499,0.682,1.782,3.064,2.07,3.676
		c1.145,2.353,4.246,7.578,5.362,9.746c1.111,2.179,3.07,6.21,3.644,7.686c0.593,1.463,1.851,4.054,1.851,4.054
		c0.302,0.535,0.99,0.714,1.514,0.411c0.469-0.272,0.666-0.822,0.513-1.32c-0.66-2.188-1.189-4.383-1.776-7.03
		c-0.587-2.661-1.769-8.146-2.281-10.331c-0.499-2.132-1.208-4.61-1.737-8.073c-0.26-1.144,0.239-2.343,1.288-2.961
		c1.325-0.753,3.209-0.448,3.957,0.869c0.277,0.355,2.605,6.163,3.192,8.169c0.889,2.986,2.211,5.716,2.89,8.744
		c0.771,3.392,1.696,6.857,3.07,10.049c3.619,8.382,7.717,9.686,8.451,9.902c1.43,0.438,1.491-0.414,1.541-1.391
		c0.184-5.133-0.075-10.243,2.644-14.816c0.906-1.5,2.188-3.101,3.963-3.526c1.308-0.311,2.787,0.025,3.043,1.529
		c0.224,1.26-0.195,2.714-0.344,3.964c-0.131,1.115-0.253,2.24-0.353,3.36c-0.202,2.056-0.454,4.164-0.374,6.239
		c0.08,2.276,0.388,4.439,0.512,6.727c0.469,7.917,0.261,13.192-3.488,19.92c0,0-1.493,2.015,0.067,4.985h35.229
		c3.292,0,5.972-2.672,5.972-5.966v-71.918C196.669,119.81,196.207,120.306,195.793,120.658"/>
</g>
<path fill="#631B4B" d="M274.389,76.854c-1.174,2.595-2.827,4.76-4.958,6.489c-2.134,1.731-4.714,3.029-7.742,3.894
	c-3.028,0.866-6.365,1.298-10.013,1.298h-5.469v23.546h-12.236V48.114h18.726c7.354,0,13.102,1.655,17.242,4.96
	c4.141,3.307,6.213,8.204,6.213,14.694C276.152,71.229,275.563,74.256,274.389,76.854z M252.047,57.94h-5.84v20.673h5.377
	c3.953,0,7.028-0.834,9.224-2.503c2.192-1.668,3.291-4.356,3.291-8.065C264.099,61.311,260.082,57.94,252.047,57.94z
	 M308.411,112.081l-0.926-5.84c-1.793,1.917-3.896,3.522-6.304,4.82c-2.413,1.298-5.284,1.947-8.621,1.947
	c-3.835,0-6.909-1.096-9.226-3.291c-2.317-2.193-3.477-5.238-3.477-9.131c0-5.438,2.226-9.471,6.673-12.098
	c4.45-2.626,11.221-4.372,20.305-5.238v-1.298c0-2.411-0.665-4.125-1.992-5.145c-1.326-1.02-3.223-1.53-5.688-1.53
	c-2.596,0-5.123,0.34-7.593,1.02c-2.466,0.681-4.905,1.545-7.31,2.596l-1.391-8.899c2.591-1.05,5.309-1.915,8.149-2.596
	c2.841-0.68,6.052-1.02,9.631-1.02c5.803,0,10.139,1.16,13.01,3.477c2.871,2.317,4.309,6.164,4.309,11.541v30.686H308.411z
	 M306.835,89.739c-3.196,0.37-5.823,0.896-7.884,1.575c-2.057,0.68-3.67,1.438-4.836,2.272c-1.166,0.834-1.98,1.746-2.443,2.734
	c-0.458,0.989-0.691,2.009-0.691,3.06c0,1.607,0.478,2.874,1.43,3.801c0.952,0.927,2.29,1.391,4.011,1.391
	c1.903,0,3.731-0.417,5.482-1.252s3.395-2.023,4.932-3.569V89.739z M344.845,80.283c-2.723,1.669-4.887,3.708-6.492,6.119v25.679
	h-11.125V67.304h9.458l1.388,8.992c1.483-2.595,3.368-4.851,5.658-6.767c2.286-1.916,5.192-2.967,8.713-3.152l1.763,11.032
	C350.683,77.656,347.563,78.614,344.845,80.283z M384.15,112.59c-1.112,0.154-2.474,0.232-4.079,0.232
	c-2.225,0-4.232-0.217-6.025-0.649c-1.793-0.431-3.337-1.173-4.637-2.225c-1.297-1.05-2.302-2.44-3.013-4.171
	c-0.711-1.73-1.067-3.862-1.067-6.397V76.389h-6.3v-9.084h6.3V53.121l10.942-1.669v15.853h9.176l1.392,9.084h-10.567v21.137
	c0,1.793,0.447,3.167,1.342,4.125c0.898,0.96,2.428,1.438,4.592,1.438c1.418,0,2.596-0.123,3.521-0.371l1.392,9.363
	C386.25,112.266,385.263,112.435,384.15,112.59z M423.085,112.081V82.786c0-1.978-0.448-3.569-1.347-4.774
	c-0.895-1.205-2.362-1.808-4.4-1.808c-1.797,0-3.54,0.51-5.241,1.53c-1.697,1.02-3.353,2.395-4.958,4.125v30.222h-11.126V67.304
	h9.459l1.017,6.304c2.103-1.978,4.358-3.677,6.771-5.099c2.409-1.421,5.127-2.132,8.155-2.132c4.205,0,7.386,1.191,9.55,3.569
	c2.164,2.381,3.246,5.671,3.246,9.874v32.261H423.085z M483.387,90.667c-0.03,0.495-0.046,0.896-0.046,1.205h-28.738
	c0.31,4.388,1.529,7.571,3.662,9.548c2.134,1.979,4.928,2.966,8.388,2.966c2.906,0,5.578-0.493,8.021-1.482
	c2.442-0.988,4.897-2.349,7.371-4.08l1.296,8.714c-2.408,1.67-5.085,2.999-8.018,3.987c-2.936,0.988-6.228,1.483-9.875,1.483
	c-3.15,0-6.06-0.449-8.721-1.344c-2.664-0.896-4.978-2.302-6.938-4.219c-1.965-1.914-3.506-4.341-4.63-7.276
	c-1.12-2.935-1.683-6.411-1.683-10.429c0-3.646,0.517-6.907,1.545-9.782c1.028-2.873,2.462-5.314,4.297-7.323
	c1.839-2.007,4.015-3.553,6.522-4.636c2.512-1.08,5.219-1.622,8.124-1.622c3.338,0,6.243,0.588,8.717,1.762
	c2.47,1.174,4.496,2.796,6.071,4.867c1.575,2.071,2.749,4.496,3.525,7.277c0.771,2.781,1.158,5.748,1.158,8.899
	C483.437,89.678,483.417,90.172,483.387,90.667z M469.899,76.854c-1.422-1.855-3.49-2.782-6.209-2.782
	c-2.225,0-4.159,0.881-5.796,2.643c-1.636,1.761-2.672,4.496-3.104,8.205h17.796C472.22,81.395,471.322,78.707,469.899,76.854z
	 M509.95,80.283c-2.722,1.669-4.886,3.708-6.491,6.119v25.679h-11.125V67.304h9.458l1.388,8.992
	c1.487-2.595,3.368-4.851,5.658-6.767c2.286-1.916,5.192-2.967,8.713-3.152l1.763,11.032
	C515.789,77.656,512.668,78.614,509.95,80.283z M553.66,109.253c-3.063,2.442-7.555,3.662-13.487,3.662
	c-3.276,0-6.462-0.433-9.551-1.298c-3.093-0.864-5.719-1.884-7.879-3.06l1.483-9.27c2.408,1.607,5.035,2.889,7.879,3.847
	c2.841,0.96,5.654,1.438,8.434,1.438c2.413,0,4.252-0.417,5.518-1.252c1.269-0.834,1.899-1.961,1.899-3.383
	c0-0.803-0.138-1.498-0.416-2.085c-0.275-0.587-0.758-1.113-1.435-1.577c-0.684-0.462-1.609-0.895-2.783-1.297
	c-1.173-0.401-2.656-0.819-4.449-1.252c-2.723-0.679-5.051-1.42-7.001-2.225c-1.945-0.802-3.536-1.746-4.774-2.828
	c-1.235-1.08-2.148-2.347-2.733-3.8c-0.589-1.452-0.88-3.199-0.88-5.239c0-3.893,1.438-7.06,4.309-9.502
	c2.875-2.44,6.939-3.662,12.192-3.662c5.872,0,11.095,1.051,15.667,3.152l-1.483,9.27c-2.226-1.236-4.588-2.225-7.092-2.967
	s-4.867-1.111-7.092-1.111c-2.103,0-3.663,0.37-4.684,1.111c-1.017,0.742-1.529,1.731-1.529,2.967c0,0.618,0.126,1.158,0.371,1.623
	c0.248,0.462,0.681,0.912,1.3,1.344c0.615,0.433,1.468,0.851,2.55,1.251c1.078,0.403,2.454,0.821,4.125,1.252
	c2.906,0.742,5.376,1.515,7.417,2.318c2.038,0.804,3.709,1.762,5.005,2.874c1.3,1.113,2.24,2.426,2.829,3.94
	c0.585,1.515,0.879,3.323,0.879,5.423C558.248,103.366,556.718,106.813,553.66,109.253z M234.625,197.919V135.23h6.27v62.689
	H234.625z M283.139,197.919v-29.618c0-2.786-0.652-4.965-1.952-6.542c-1.304-1.574-3.318-2.363-6.043-2.363
	c-2.303,0-4.603,0.667-6.904,1.999c-2.304,1.333-4.634,3.15-6.994,5.451v31.073h-5.999v-42.974h4.634l1,6.361
	c2.362-2.119,4.8-3.861,7.313-5.225c2.514-1.362,5.225-2.042,8.132-2.042c4.299,0,7.51,1.149,9.628,3.451
	c2.122,2.302,3.181,5.542,3.181,9.721v30.708H283.139z M361.816,197.919v-29.982h-34.799v29.982h-6.266V135.23h6.266v27.076h34.799
	V135.23h6.266v62.689H361.816z M413.145,176.841h-29.89c0.119,5.359,1.346,9.517,3.678,12.468c2.329,2.954,5.674,4.429,10.032,4.429
	c2.905,0,5.601-0.583,8.082-1.749c2.481-1.168,4.844-2.734,7.084-4.701l0.922,5.452c-2.122,1.816-4.558,3.286-7.313,4.406
	c-2.757,1.12-5.8,1.68-9.13,1.68c-2.849,0-5.452-0.47-7.814-1.409c-2.358-0.937-4.389-2.346-6.087-4.225
	c-1.693-1.877-3.027-4.225-3.998-7.04c-0.968-2.817-1.453-6.072-1.453-9.767c0-3.452,0.47-6.556,1.41-9.312
	c0.938-2.755,2.241-5.102,3.904-7.041c1.666-1.938,3.62-3.422,5.86-4.451s4.695-1.544,7.359-1.544c2.909,0,5.452,0.56,7.631,1.68
	c2.184,1.121,3.999,2.665,5.452,4.633c1.453,1.968,2.527,4.256,3.227,6.859c0.696,2.605,1.044,5.392,1.044,8.359V176.841z
	 M403.66,162.578c-1.839-2.484-4.477-3.726-7.914-3.726c-3.38,0-6.109,1.167-8.192,3.498c-2.08,2.333-3.422,5.587-4.026,9.767
	h23.348C406.573,168.242,405.502,165.062,403.66,162.578z M450.684,197.919l-1.017-5.725c-1.992,1.879-4.24,3.454-6.748,4.725
	c-2.504,1.271-5.299,1.908-8.377,1.908c-3.742,0-6.805-1-9.19-2.997c-2.386-2-3.578-4.907-3.578-8.723
	c0-2.544,0.531-4.754,1.586-6.631c1.056-1.877,2.703-3.483,4.937-4.817c2.232-1.332,5.084-2.421,8.556-3.27
	c3.472-0.848,7.623-1.513,12.452-1.998v-2.817c0-2.907-0.803-5.011-2.401-6.314c-1.598-1.303-3.754-1.953-6.469-1.953
	c-2.534,0-5.039,0.348-7.513,1.044c-2.473,0.697-4.89,1.621-7.24,2.771l-0.818-5.36c2.546-1.091,5.073-1.983,7.589-2.681
	c2.512-0.695,5.314-1.043,8.403-1.043c9.63,0,14.443,4.421,14.443,13.263v30.618H450.684z M449.304,175.115
	c-4.221,0.425-7.723,0.999-10.495,1.726c-2.775,0.727-4.978,1.576-6.606,2.543c-1.628,0.97-2.771,2.075-3.437,3.317
	c-0.665,1.242-0.994,2.587-0.994,4.042c0,2.302,0.707,4.043,2.126,5.225c1.414,1.181,3.272,1.77,5.563,1.77
	c2.294,0,4.646-0.589,7.058-1.77c2.412-1.182,4.672-2.739,6.786-4.68V175.115z M469.563,197.919v-64.142l5.994-1.091v65.232H469.563
	z M506.991,198.418c-1.028,0.151-2.179,0.228-3.448,0.228c-3.395,0-6.121-0.772-8.178-2.317c-2.061-1.544-3.089-4.284-3.089-8.221
	v-28.073h-6.633v-5.089h6.633v-14.897l5.995-1.001v15.898h9.901l0.818,5.089h-10.72v27.073c0,2.181,0.485,3.77,1.452,4.77
	c0.972,1,2.607,1.499,4.909,1.499c0.665,0,1.376-0.046,2.133-0.136c0.758-0.09,1.377-0.195,1.862-0.317l0.91,4.997
	C508.869,198.101,508.023,198.267,506.991,198.418z M548.055,197.919v-29.618c0-2.786-0.649-4.965-1.953-6.542
	c-1.304-1.574-3.315-2.363-6.041-2.363c-2.302,0-4.603,0.667-6.904,1.999c-2.302,1.333-4.634,3.15-6.996,5.451v31.073h-5.995
	v-64.142l5.995-1.091v28.347c2.24-1.938,4.587-3.589,7.042-4.953c2.454-1.362,5.134-2.042,8.04-2.042
	c4.301,0,7.509,1.149,9.63,3.451c2.118,2.302,3.182,5.512,3.182,9.629v30.8H548.055z"/>
</svg>
