<?xml version="1.0" encoding="UTF-8" standalone="no"?>
<!-- Created with Inkscape (http://www.inkscape.org/) -->

<svg
   xmlns:svg="http://www.w3.org/2000/svg"
   xmlns="http://www.w3.org/2000/svg"
   version="1.1"
   width="420"
   height="90"
   id="svg3288">
  <defs
     id="defs3290" />
  <g
     transform="translate(-306.71519,-624.48091)"
     id="layer1">
    <path
       d="m 421.60779,676.01466 c -3.9775,-1.7675 -6.345,-2.45 -8.675,-2.45 -2.45,0 -4.0175,0.885 -4.0175,2.25 0,4.1375 13.9375,2.9725 13.9375,12.5325 0,5.2625 -4.4175,8.315 -10.5225,8.315 -4.78,0 -7.15,-1.245 -9.8825,-2.6525 l 0,-5.905 c 3.9375,2.6125 6.3475,3.535 9.36,3.535 2.61,0 4.0175,-0.9225 4.0175,-2.53 0,-4.5 -13.94,-2.8525 -13.94,-12.6925 0,-4.74 4.0975,-7.8725 10.445,-7.8725 3.0525,0 5.8225,0.6425 9.2775,2.13 l 0,5.34"
       id="path178"
       style="fill:#000000;fill-opacity:1;fill-rule:nonzero;stroke:none" />
    <path
       d="m 442.72779,692.76466 c -0.6025,0 -0.965,-0.3625 -0.965,-1.285 l 0,-8.435 c 0,-4.0575 -3.1725,-5.6225 -7.8325,-5.6225 -2.9325,0 -5.6225,0.7625 -8.0325,2.2475 l 0,4.74 c 1.8475,-1.8875 4.4975,-3.0925 6.8275,-3.0925 2.53,0 3.335,1.365 3.2125,3.0925 -7.75,2.41 -11.005,3.295 -11.005,7.7125 0,2.33 2.21,4.54 5.1825,4.54 2.0075,0 3.855,-0.5625 6.105,-2.09 0.4025,1.4875 1.325,2.09 3.2525,2.09 1.5675,0 3.8575,-0.725 5.4625,-1.6875 l 0,-3.255 c -1.365,0.965 -1.8075,1.045 -2.2075,1.045 z m -6.79,-0.9625 c -0.9625,0.8825 -2.1275,1.405 -3.2125,1.405 -1.045,0 -1.8875,-0.885 -1.8875,-1.9675 0,-1.8475 1.6475,-2.6525 5.1,-3.8975 l 0,4.46"
       id="path180"
       style="fill:#000000;fill-opacity:1;fill-rule:nonzero;stroke:none" />
    <path
       d="m 444.20529,677.78216 6.225,0 3.935,10.2025 3.9775,-10.2025 6.185,0 -8.515,18.88 -3.2525,0 -8.555,-18.88"
       id="path182"
       style="fill:#000000;fill-opacity:1;fill-rule:nonzero;stroke:none" />
    <path
       d="m 471.30779,687.98466 13.295,0 c 0.2825,-6.7475 -4.1775,-10.5625 -9.56,-10.5625 -5.7025,0 -9.76,4.015 -9.76,9.68 0,5.7825 4.2175,9.56 10.725,9.56 1.445,0 4.94,0 8.275,-2.45 l 0,-3.6575 c -2.7325,1.97 -4.54,2.6525 -6.87,2.6525 -3.655,0 -5.905,-1.9275 -6.105,-5.2225 z m 4.1375,-7.11 c 2.25,0 3.775,1.5275 4.0175,4.0575 l -8.035,0 c 0.2425,-2.57 1.7275,-4.0575 4.0175,-4.0575"
       id="path184"
       style="fill:#000000;fill-opacity:1;fill-rule:nonzero;stroke:none" />
    <path
       d="m 511.21787,681.75966 -6.7475,0 0,7.6325 c 0,1.8075 1.045,2.97 2.8525,2.97 1.205,0 2.3275,-0.28 3.895,-1.0825 l 0,4.2175 c -2.0475,0.8425 -3.575,1.165 -5.3825,1.165 -3.855,0 -7.19,-1.7675 -7.19,-6.95 l 0,-7.9525 -2.65,0 0,-1.125 7.7525,-8.6775 0.7225,0 0,5.825 6.7475,0 0,3.9775"
       id="path186"
       style="fill:#000000;fill-opacity:1;fill-rule:nonzero;stroke:none" />
    <path
       d="m 519.32287,680.51466 0.08,0 c 1.6875,-2.13 3.575,-3.0925 5.865,-3.0925 3.3725,0 6.7875,2.0475 6.7875,7.07 l 0,11.8075 -5.825,0 0,-10.565 c 0,-2.77 -1.205,-4.055 -3.0125,-4.055 -1.365,0 -2.53,0.8425 -3.895,2.8125 l 0,11.8075 -5.825,0 0,-27.3925 5.825,0 0,11.6075"
       id="path188"
       style="fill:#000000;fill-opacity:1;fill-rule:nonzero;stroke:none" />
    <path
       d="m 541.12537,687.98466 13.295,0 c 0.28,-6.7475 -4.1775,-10.5625 -9.56,-10.5625 -5.705,0 -9.76,4.015 -9.76,9.68 0,5.7825 4.2175,9.56 10.7225,9.56 1.4475,0 4.9425,0 8.275,-2.45 l 0,-3.6575 c -2.73,1.97 -4.5375,2.6525 -6.8675,2.6525 -3.655,0 -5.905,-1.9275 -6.105,-5.2225 z m 4.135,-7.11 c 2.25,0 3.7775,1.5275 4.0175,4.0575 l -8.0325,0 c 0.24,-2.57 1.7275,-4.0575 4.015,-4.0575"
       id="path190"
       style="fill:#000000;fill-opacity:1;fill-rule:nonzero;stroke:none" />
    <path
       d="m 593.92787,693.92966 c -3.815,1.9675 -6.7075,2.7325 -10.765,2.7325 -10.6425,0 -15.945,-6.91 -15.945,-13.98 0,-7.31 5.985,-14.1375 16.4675,-14.1375 3.815,0 7.23,0.8025 9.9225,2.41 l 0,6.105 c -3.0125,-1.6875 -6.065,-2.8125 -9.44,-2.8125 -5.825,0 -9.9225,3.455 -9.9225,8.315 0,4.9 4.0575,8.395 9.7625,8.395 3.575,0 5.985,-1.125 9.92,-3.0125 l 0,5.985"
       id="path192"
       style="fill:#000000;fill-opacity:1;fill-rule:nonzero;stroke:none" />
    <path
       d="m 603.81037,680.51466 0.08,0 c 1.6875,-2.13 3.575,-3.0925 5.865,-3.0925 3.3725,0 6.7875,2.0475 6.7875,7.07 l 0,11.8075 -5.825,0 0,-10.565 c 0,-2.77 -1.205,-4.055 -3.0125,-4.055 -1.365,0 -2.53,0.8425 -3.895,2.8125 l 0,11.8075 -5.825,0 0,-27.3925 5.825,0 0,11.6075"
       id="path194"
       style="fill:#000000;fill-opacity:1;fill-rule:nonzero;stroke:none" />
    <path
       d="m 620.63037,696.29966 5.824,0 0,-18.517 -5.824,0 0,18.517 z"
       id="path196"
       style="fill:#000000;fill-opacity:1;fill-rule:nonzero;stroke:none" />
    <path
       d="m 626.73537,671.75716 c 0,1.7675 -1.445,3.215 -3.2125,3.215 -1.7675,0 -3.2125,-1.4475 -3.2125,-3.215 0,-1.7675 1.445,-3.2125 3.2125,-3.2125 1.7675,0 3.2125,1.445 3.2125,3.2125"
       id="path198"
       style="fill:#000000;fill-opacity:1;fill-rule:nonzero;stroke:none" />
    <path
       d="m 630.71287,696.29966 5.82424,0 0,-27.3925 -5.82424,0 0,27.3925 z"
       id="path200"
       style="fill:#000000;fill-opacity:1;fill-rule:nonzero;stroke:none" />
    <path
       d="m 653.48787,668.90716 0,9.68 c -1.5675,-0.765 -3.1325,-1.165 -4.82,-1.165 -5.3025,0 -8.9975,3.935 -8.9975,9.6 0,5.5425 3.695,9.64 8.675,9.64 1.9675,0 3.495,-0.5225 5.1425,-1.8475 l 0,1.485 5.825,0 0,-27.3925 -5.825,0 z m 0,22.3325 c -1.205,1.0825 -2.21,1.525 -3.455,1.525 -2.73,0 -4.4575,-2.25 -4.4575,-5.6225 0,-3.695 1.7275,-5.825 4.6575,-5.825 1.045,0 2.41,0.4825 3.255,1.085 l 0,8.8375"
       id="path202"
       style="fill:#000000;fill-opacity:1;fill-rule:nonzero;stroke:none" />
    <path
       d="m 669.26537,683.08466 0.08,0 c 1.725,-3.855 3.655,-5.6625 5.9025,-5.6625 1.165,0 2.17,0.44 3.8575,1.685 l -1.6075,5.1425 c -1.525,-0.965 -2.53,-1.365 -3.455,-1.365 -2.1275,0 -3.4925,2.0075 -4.7775,5.4225 l 0,7.9925 -5.825,0 0,-18.5175 5.825,0 0,5.3025"
       id="path204"
       style="fill:#000000;fill-opacity:1;fill-rule:nonzero;stroke:none" />
    <path
       d="m 685.57287,687.98466 13.295,0 c 0.28,-6.7475 -4.1775,-10.5625 -9.56,-10.5625 -5.705,0 -9.76,4.015 -9.76,9.68 0,5.7825 4.2175,9.56 10.725,9.56 1.445,0 4.94,0 8.2725,-2.45 l 0,-3.6575 c -2.73,1.97 -4.5375,2.6525 -6.8675,2.6525 -3.655,0 -5.905,-1.9275 -6.105,-5.2225 z m 4.1375,-7.11 c 2.2475,0 3.775,1.5275 4.015,4.0575 l -8.0325,0 c 0.2425,-2.57 1.7275,-4.0575 4.0175,-4.0575"
       id="path206"
       style="fill:#000000;fill-opacity:1;fill-rule:nonzero;stroke:none" />
    <path
       d="m 707.65537,680.43216 c 1.8475,-2.1275 3.655,-3.01 6.025,-3.01 2.8925,0 6.7475,1.645 6.7475,7.11 l 0,11.7675 -5.825,0 0,-11.2875 c 0,-2.61 -1.245,-3.695 -2.89,-3.695 -1.4475,0 -2.5325,0.7625 -4.0575,3.0525 l 0,11.93 -5.825,0 0,-18.5175 5.825,0 0,2.65"
       id="path208"
       style="fill:#000000;fill-opacity:1;fill-rule:nonzero;stroke:none" />
    <path
       d="m 386.64279,650.65466 c 3.6925,-3.7975 5.3325,-5.555 5.075,-6.595 -0.195,-0.78 -0.945,-1.505 -2.11,-2.0425 -1.2525,-0.5775 -3,-0.9225 -3.9225,-0.4625 -0.31,0.1524 -0.8275,0.6575 -2.07,1.89 l -1.165,1.1425 -0.002,-0.002 c -0.64,-0.7475 -1.3225,-1.4975 -1.9975,-2.1725 -4.9075,-4.9075 -11.1025,-8.3125 -17.9225,-9.86 -2.5725,-3.1425 -6.1,-4.76 -9.705,-4.445 -3.0275,0.2625 -5.7825,1.87 -7.7825,4.525 -7.15,1.65 -13.7675,5.2325 -19.17,10.3775 l 0,-0.004 c -1.1,-0.4125 -3.5925,-0.145 -5.1925,0.5925 -0.92,0.425 -1.4625,0.955 -1.6175,1.5775 -0.12,0.4725 0.025,1.235 1.7925,3.555 l 0,0.006 c -5.47,7.52 -8.2475,16.6725 -7.805,25.7825 0.4575,9.34 4.2775,18.055 10.7625,24.54 2.3,2.2975 4.8625,4.2625 7.6525,5.865 l 0,0 c 4.0225,2.3125 8.525,4.0425 13.39,5.0375 10.2225,2.0875 20.34,0.5725 28.8325,-3.6325 l 0.025,-0.01 c 1.0825,-0.5025 1.545,-1.745 1.105,-2.955 l -0.1324,-0.365 c -1.7925,-4.8975 -7.2525,-19.8075 -2.7525,-32.76 1.885,-5.42 6.625,-11.005 10.6875,-15.3625 l 0.002,0 c 3.56,6.4675 5.0925,13.975 4.3,21.19 -0.7525,6.8375 -3.4475,13.0625 -7.8375,18.1425 l 0,0.002 c -0.1326,0.14 -0.2125,0.3275 -0.2125,0.535 0,0.0874 0.025,0.1724 0.04,0.25 l 0.345,0.98 c 0.1124,0.295 0.3975,0.505 0.7325,0.505 0.225,0 0.4275,-0.095 0.57,-0.2475 l 0.025,0.002 c 11.5175,-12.7075 14.045,-31.115 6.0875,-45.5775 l 0,-0.002 z m -48.96,27.995 c -1.185,4.9075 -2.805,11.615 -2.47,21.9425 l 0,-0.004 c -2.6375,-1.5725 -5.1,-3.475 -7.28,-5.655 -5.9475,-5.9475 -9.7075,-13.7425 -10.5875,-21.945 -0.845,-7.885 0.995,-15.7325 5.1825,-22.1775 0,0 0,0 0,-0.002 l 0.002,0 c 0,0 0,0 -0.002,0.002 1.3175,1.5775 2.9175,3.4025 4.5925,5.3075 4.1025,4.6625 8.7525,9.95 10.935,13.635 1.265,2.13 0.65,4.6775 -0.37,8.8975 z m 40.505,-30.1025 c -8.6675,7.595 -16.6175,11.4875 -23.6075,11.535 -5.38,0.0376 -10.94,-1.9475 -16.5225,-5.9 -4.615,-3.2675 -8.0925,-7.03 -10.17,-9.2775 l -0.2125,-0.2275 0,0 0,-0.002 0,0.002 c 4.2675,-3.9825 9.53,-6.7675 15.265,-8.0725 0,-0.002 0.002,-0.002 0.002,-0.004 l 0,0.002 c -0.002,0.002 0,0.002 0,0.002 -0.7475,2.16 -1.0175,4.5075 -0.81,6.8875 0.375,4.2725 2.295,8.1525 5.2675,10.6475 2.325,1.9525 5.145,2.8925 7.935,2.65 2.79,-0.245 5.4025,-1.66 7.355,-3.9875 2.495,-2.9725 3.7125,-7.1275 3.3375,-11.4 -0.0676,-0.785 -0.19,-1.565 -0.3625,-2.3275 l 0,0.002 c 3.9475,1.8225 7.54,4.3375 10.6625,7.46 0.6325,0.635 1.26,1.3075 1.865,2.01 l 0,0"
       id="path210"
       style="fill:#ed1b2d;fill-opacity:1;fill-rule:nonzero;stroke:none" />
  </g>
</svg>
